<?xml version="1.0" standalone="no"?>
<!DOCTYPE svg PUBLIC "-//W3C//DTD SVG 20010904//EN"
 "http://www.w3.org/TR/2001/REC-SVG-20010904/DTD/svg10.dtd">
<svg version="1.0" xmlns="http://www.w3.org/2000/svg"
 width="580.000000pt" height="387.000000pt" viewBox="0 0 580.000000 387.000000"
 preserveAspectRatio="xMidYMid meet">

<g transform="translate(0.000000,387.000000) scale(0.100000,-0.100000)"
fill="#000000" stroke="none">
<path d="M2751 3160 c-275 -35 -565 -184 -750 -386 -230 -250 -342 -555 -327
-889 14 -320 123 -576 344 -806 227 -237 505 -362 837 -375 219 -10 419 34
610 132 125 64 205 123 310 228 311 313 430 749 321 1177 -116 460 -493 815
-958 904 -103 20 -289 27 -387 15z m351 -55 c378 -66 698 -307 864 -650 161
-332 166 -685 13 -1023 -100 -222 -316 -445 -539 -557 -179 -89 -332 -125
-537 -125 -165 0 -295 24 -438 81 -117 46 -189 89 -301 175 -210 162 -369 422
-424 692 -26 128 -28 329 -5 450 48 250 168 468 356 647 172 163 376 268 605
309 106 19 299 19 406 1z"/>
<path d="M2812 3018 c-14 -14 -16 -116 -3 -136 5 -8 21 -12 37 -10 l29 3 -2
69 c-1 45 -6 72 -15 77 -18 12 -32 11 -46 -3z m38 -73 c0 -30 -4 -55 -10 -55
-5 0 -10 11 -10 24 0 13 -3 38 -6 55 -5 24 -3 31 10 31 13 0 16 -11 16 -55z"/>
<path d="M2967 2949 c-18 -75 -16 -95 7 -64 14 19 36 13 36 -11 0 -8 5 -14 10
-14 11 0 13 46 4 114 -5 34 -11 46 -23 46 -13 0 -22 -18 -34 -71z m29 -27
c-11 -10 -15 4 -8 28 l7 25 3 -23 c2 -13 1 -26 -2 -30z"/>
<path d="M2639 2995 c-11 -10 23 -156 35 -152 6 2 10 18 8 35 -4 41 14 42 23
2 9 -41 29 -39 21 3 -4 17 -10 50 -14 72 -6 35 -11 40 -37 43 -17 2 -33 0 -36
-3z m49 -39 c3 -12 -1 -17 -10 -14 -7 3 -15 13 -16 22 -3 12 1 17 10 14 7 -3
15 -13 16 -22z"/>
<path d="M3132 2988 c-16 -16 -15 -33 4 -69 8 -17 13 -38 9 -47 -6 -15 -8 -15
-21 2 -17 23 -33 12 -18 -12 6 -9 22 -17 35 -17 30 0 36 25 18 77 -7 21 -9 41
-4 46 4 4 10 1 12 -5 7 -20 23 -15 23 6 0 28 -37 40 -58 19z"/>
<path d="M3280 2952 c0 -4 5 -13 10 -18 7 -7 2 -29 -15 -68 -29 -66 -29 -66
-12 -66 6 0 23 27 36 61 17 44 27 59 38 55 9 -4 13 -1 11 6 -5 14 -68 42 -68
30z"/>
<path d="M2412 2912 c-10 -7 -9 -16 3 -46 21 -51 12 -57 -17 -12 -25 39 -36
44 -44 22 -6 -16 52 -136 66 -136 13 0 13 5 -5 43 l-16 32 23 -27 c13 -16 29
-28 36 -28 15 0 15 0 -3 46 -15 38 -7 33 21 -13 7 -10 15 -15 18 -12 7 7 -54
139 -64 139 -3 0 -11 -4 -18 -8z"/>
<path d="M3395 2819 l-38 -62 24 -18 c13 -10 27 -19 32 -19 12 0 8 17 -8 30
-21 18 -1 53 26 45 21 -7 25 5 8 22 -17 17 0 35 27 29 29 -8 32 9 5 24 -31 16
-36 13 -76 -51z"/>
<path d="M2272 2764 c18 -25 36 -48 40 -50 13 -8 9 -24 -4 -24 -7 0 -28 21
-47 45 -31 42 -51 56 -51 36 0 -15 81 -111 94 -111 16 0 36 21 36 38 0 21 -71
112 -88 112 -8 0 -1 -17 20 -46z"/>
<path d="M3525 2744 c-38 -45 -46 -60 -38 -73 20 -33 56 -25 91 20 37 49 40
69 14 92 -17 16 -21 14 -67 -39z m65 10 c0 -11 -62 -84 -71 -84 -17 0 -9 19
22 55 28 32 49 44 49 29z"/>
<path d="M2120 2692 c0 -4 24 -32 54 -61 39 -38 56 -49 62 -40 5 9 -10 29 -46
61 -52 46 -70 57 -70 40z"/>
<path d="M2034 2599 c-3 -6 9 -27 27 -46 l34 -35 -44 22 c-32 16 -46 19 -55
10 -12 -12 -3 -20 77 -76 45 -33 63 -23 22 12 l-30 24 37 -17 c52 -23 58 -10
17 34 l-34 36 36 -26 c38 -29 49 -33 49 -18 0 10 -105 91 -119 91 -5 0 -13 -5
-17 -11z"/>
<path d="M3708 2556 c-32 -22 -58 -46 -58 -52 0 -14 33 -44 48 -44 7 0 22 10
34 23 13 12 32 27 43 32 26 14 30 47 8 67 -17 14 -22 12 -75 -26z m59 -13 c-9
-9 -19 -14 -23 -11 -10 10 6 28 24 28 15 0 15 -1 -1 -17z m-50 -38 c-7 -16
-37 -21 -37 -5 0 10 32 31 39 25 2 -2 1 -11 -2 -20z"/>
<path d="M2795 2490 c-263 -53 -455 -286 -455 -555 0 -247 178 -476 420 -540
72 -19 207 -19 284 1 33 9 87 29 119 46 l57 31 74 -72 c54 -52 81 -71 100 -71
31 0 76 40 76 68 0 23 -44 84 -98 136 l-41 39 28 41 c70 102 101 201 101 326
0 150 -55 284 -160 390 -133 134 -327 195 -505 160z m240 -45 c262 -69 435
-340 381 -601 -52 -257 -258 -428 -516 -428 -151 0 -267 50 -378 162 -157 159
-189 428 -75 625 63 108 195 209 313 241 73 19 201 20 275 1z"/>
<path d="M2773 2425 c-142 -40 -252 -129 -317 -257 -44 -87 -59 -162 -54 -263
12 -190 140 -367 315 -436 88 -34 249 -39 336 -10 161 54 280 175 328 334 17
55 21 87 17 171 -3 98 -6 108 -46 189 -63 127 -162 218 -287 261 -69 25 -225
30 -292 11z m295 -26 c34 -13 93 -46 129 -74 117 -88 182 -211 191 -360 19
-331 -290 -584 -613 -500 -170 45 -303 183 -350 362 -65 248 98 515 356 588
75 21 206 14 287 -16z"/>
<path d="M2800 2406 c-368 -79 -502 -535 -235 -802 219 -221 571 -183 739 79
121 189 93 432 -68 592 -73 73 -142 111 -233 130 -80 17 -128 18 -203 1z m235
-37 c69 -26 65 -35 -8 -19 -31 7 -91 11 -140 8 -76 -4 -96 -9 -171 -46 -59
-30 -98 -57 -130 -93 -50 -56 -102 -157 -112 -219 -9 -57 -27 -50 -19 8 26
193 162 343 348 382 61 13 168 3 232 -21z m-63 -155 c76 -53 128 -159 135
-278 12 -187 -48 -294 -171 -304 -67 -5 -130 22 -163 70 -64 95 -87 325 -43
426 22 52 75 104 115 115 35 9 89 -3 127 -29z m376 -322 c-5 -104 -35 -178
-104 -249 -53 -56 -77 -56 -29 0 69 81 114 201 115 307 0 40 3 51 11 43 8 -8
10 -42 7 -101z"/>
<path d="M2857 2185 c33 -23 53 -105 60 -235 7 -148 27 -186 104 -205 39 -10
54 35 54 165 0 91 -3 111 -24 150 -52 98 -103 140 -170 140 -44 0 -45 -1 -24
-15z"/>
<path d="M2793 2162 c-7 -4 -22 -30 -34 -57 -42 -94 -18 -302 43 -380 26 -33
75 -55 120 -55 37 1 104 30 101 45 -1 5 -22 15 -47 22 -70 21 -86 49 -86 152
0 130 -26 271 -50 271 -5 0 -14 2 -22 5 -7 3 -18 1 -25 -3z"/>
<path d="M1926 2422 l-15 -29 64 -31 c35 -18 67 -32 73 -32 11 0 35 51 27 59
-4 3 -13 -2 -20 -12 -18 -25 -59 -14 -50 14 7 21 -5 25 -21 9 -6 -6 -18 -8
-27 -4 -13 4 -14 10 -7 24 6 12 7 21 0 25 -5 3 -16 -7 -24 -23z"/>
<path d="M3788 2419 c-60 -30 -67 -42 -44 -71 19 -25 27 -22 20 7 -7 28 19 46
39 26 17 -17 29 -13 22 9 -9 28 22 39 40 14 19 -26 31 -9 15 21 -17 31 -22 31
-92 -6z"/>
<path d="M1862 2265 c-7 -15 -11 -29 -10 -30 2 -1 34 -12 71 -25 50 -16 72
-19 80 -11 8 8 2 12 -21 17 -18 4 -32 13 -32 21 0 11 8 12 35 7 54 -10 43 12
-12 26 -99 24 -98 24 -111 -5z m59 -11 c11 -14 10 -15 -11 -12 -13 1 -25 9
-28 16 -5 17 23 15 39 -4z"/>
<path d="M3885 2285 c-5 -2 -31 -6 -57 -10 -47 -6 -68 -25 -28 -25 22 0 26
-20 8 -38 -25 -25 3 -21 66 10 44 22 66 38 66 50 0 17 -26 23 -55 13z m-5 -35
c-20 -13 -40 -13 -40 0 0 6 12 10 28 10 21 0 24 -2 12 -10z"/>
<path d="M3915 2138 c-80 -13 -95 -18 -95 -28 0 -6 20 -7 48 -5 l47 5 -42 -19
c-63 -29 -56 -45 15 -36 78 9 102 15 102 27 0 7 -17 8 -42 5 l-43 -6 38 16
c34 14 48 36 30 46 -5 2 -30 0 -58 -5z"/>
<path d="M1836 2125 c-23 -24 -20 -52 7 -58 55 -14 127 -19 127 -9 0 5 -11 13
-25 16 -14 4 -25 12 -25 20 0 32 -60 54 -84 31z m54 -29 c0 -9 -7 -12 -20 -9
-11 3 -20 9 -20 14 0 5 9 9 20 9 11 0 20 -6 20 -14z"/>
<path d="M1883 1843 c13 -186 102 -413 212 -539 48 -57 53 -35 6 27 -111 146
-201 397 -201 560 0 23 -5 39 -11 39 -9 0 -10 -25 -6 -87z"/>
<path d="M3910 1922 c0 -4 -5 -46 -11 -92 -22 -178 -72 -317 -165 -456 -59
-89 -72 -116 -45 -100 6 4 36 45 67 91 96 146 155 312 170 488 5 55 3 77 -5
77 -6 0 -11 -3 -11 -8z"/>
<path d="M3522 1230 l-23 -19 47 -53 c45 -50 74 -70 74 -50 0 5 -9 17 -20 27
-14 13 -17 22 -10 29 16 16 12 41 -13 64 -28 26 -26 26 -55 2z m47 -24 c9 -11
9 -16 0 -21 -10 -7 -28 10 -29 28 0 12 17 8 29 -7z"/>
<path d="M2201 1195 c-46 -50 -48 -57 -25 -79 20 -20 27 -20 47 2 19 21 11 38
-10 20 -28 -23 -25 3 3 39 36 44 60 55 51 24 -7 -29 9 -37 23 -11 9 16 8 25
-1 36 -20 24 -45 16 -88 -31z"/>
<path d="M2321 1100 c-36 -58 -34 -90 4 -90 17 0 33 13 55 45 38 55 37 89 -1
93 -23 3 -32 -5 -58 -48z m69 23 c0 -14 -51 -93 -60 -93 -17 0 -11 24 15 63
23 33 45 48 45 30z"/>
<path d="M3400 1135 c-10 -12 -7 -24 18 -67 25 -45 34 -53 58 -53 42 0 44 38
4 93 -33 44 -59 53 -80 27z m65 -48 c27 -48 30 -57 15 -57 -12 0 -60 70 -60
87 0 26 20 12 45 -30z"/>
<path d="M2461 1023 c-20 -42 -28 -70 -22 -76 6 -6 15 2 25 22 11 20 21 28 31
25 17 -7 20 7 5 22 -19 19 -1 45 26 38 32 -8 31 10 -1 24 -14 7 -28 12 -30 12
-2 0 -17 -30 -34 -67z"/>
<path d="M3300 1074 c0 -8 5 -24 10 -35 9 -15 7 -19 -5 -19 -8 0 -20 12 -26
27 -6 17 -13 23 -20 16 -12 -12 44 -143 62 -143 7 0 8 7 4 18 -4 9 -10 27 -12
40 -8 34 16 27 29 -8 5 -17 15 -29 20 -28 15 5 14 9 -16 81 -28 64 -46 85 -46
51z"/>
<path d="M2607 1013 c-4 -16 -13 -49 -21 -75 -13 -40 -13 -48 -1 -48 7 0 16
14 20 31 5 20 12 29 21 25 19 -7 27 11 9 22 -22 12 -8 45 16 39 11 -3 19 0 19
8 0 11 -28 24 -51 25 -4 0 -9 -12 -12 -27z"/>
<path d="M3127 1023 c-18 -17 -5 -52 28 -77 37 -29 45 -46 20 -46 -8 0 -15 5
-15 12 0 9 -3 9 -12 0 -19 -19 16 -51 40 -36 29 19 27 60 -5 81 -15 9 -31 22
-35 27 -10 15 2 28 16 17 17 -14 29 -1 15 16 -12 14 -41 18 -52 6z"/>
<path d="M2746 1002 c-2 -4 -8 -40 -11 -80 l-8 -72 32 0 c17 0 31 5 31 10 0 6
-9 10 -20 10 -14 0 -20 7 -20 21 0 12 8 23 20 26 23 6 27 23 5 23 -8 0 -15 9
-15 20 0 15 7 20 25 20 31 0 33 16 3 24 -30 8 -36 7 -42 -2z"/>
<path d="M2880 920 l0 -80 35 0 c19 0 35 5 35 10 0 6 -9 10 -20 10 -15 0 -20
7 -20 25 0 16 6 25 15 25 8 0 15 5 15 10 0 6 -7 10 -15 10 -23 0 -19 41 5 47
28 7 14 23 -21 23 l-29 0 0 -80z"/>
</g>
</svg>
